Coordinates
version=1
nRows=20
nColumns=38
inDegrees=no

Units are S.I. units (second, meters, Newtons, ...)
If the header above contains a line with 'inDegrees', this indicates whether rotational values are in degrees (yes) or radians (no).

endheader
time	pelvis_tilt	pelvis_list	pelvis_rotation	pelvis_tx	pelvis_ty	pelvis_tz	hip_flexion_r	hip_adduction_r	hip_rotation_r	knee_angle_r	ankle_angle_r	subtalar_angle_r	mtp_angle_r	hip_flexion_l	hip_adduction_l	hip_rotation_l	knee_angle_l	ankle_angle_l	subtalar_angle_l	mtp_angle_l	lumbar_extension	lumbar_bending	lumbar_rotation	arm_flex_r	arm_add_r	arm_rot_r	elbow_flex_r	pro_sup_r	wrist_flex_r	wrist_dev_r	arm_flex_l	arm_add_l	arm_rot_l	elbow_flex_l	pro_sup_l	wrist_flex_l	wrist_dev_l
3.82	-2.96013	1.27147	-1.69498	0.684823	-0.00668132	0.962726	-0.511166	0.00649067	-0.195494	0	0.0960655	0	0	-0.340477	-0.00662875	-0.358381	0.111969	0.0551164	0	0	-0.518639	-0.08341	0.0704312	-0.0124023	-0.748029	0.504759	1.54413	1.14536	0	0	0.0239914	-0.691365	0.417531	1.6889	1.20828	0	0
3.83	-2.9607	1.27163	-1.69501	0.68457	-0.0072096	0.962839	-0.510122	0.00601111	-0.195166	0	0.0937842	0	0	-0.340821	-0.00575846	-0.358214	0.109334	0.0545437	0	0	-0.521795	-0.083881	0.0693629	0.0153816	-0.75737	0.523064	1.54064	1.13151	0	0	0.0501888	-0.695554	0.432282	1.68422	1.19473	0	0
3.84	-2.96258	1.27207	-1.69402	0.684364	-0.00807627	0.962988	-0.50873	0.00575113	-0.194135	0	0.0909152	0	0	-0.340662	-0.00539414	-0.358622	0.107352	0.0530107	0	0	-0.525027	-0.0839183	0.0679545	0.0458718	-0.765748	0.543609	1.53571	1.11404	0	0	0.0760028	-0.699407	0.446626	1.67934	1.17782	0	0
3.85	-2.96495	1.27275	-1.69221	0.684148	-0.00889719	0.9631	-0.507104	0.00579656	-0.193962	0	0.0896536	0	0	-0.340222	-0.0053232	-0.359166	0.105319	0.0513274	0	0	-0.527919	-0.0835314	0.0661933	0.0773869	-0.772905	0.564388	1.52972	1.09717	0	0	0.101699	-0.703378	0.460303	1.67427	1.16337	0	0
3.86	-2.96684	1.2733	-1.6901	0.683854	-0.00978551	0.963213	-0.505712	0.0061283	-0.193966	0	0.0902042	0	0	-0.339608	-0.00530423	-0.358773	0.103302	0.0497791	0	0	-0.531159	-0.082816	0.063462	0.1102	-0.779442	0.585865	1.52324	1.08128	0	0	0.127663	-0.707069	0.47333	1.66909	1.14847	0	0
3.87	-2.96786	1.2733	-1.68794	0.683435	-0.0108181	0.963411	-0.504847	0.00649094	-0.194437	0	0.0897528	0	0	-0.339392	-0.00502748	-0.356555	0.100847	0.0476425	0	0	-0.535536	-0.0818337	0.0594212	0.144389	-0.785363	0.607811	1.51662	1.06555	0	0	0.154089	-0.710205	0.485939	1.66389	1.13266	0	0
3.88	-2.97038	1.27372	-1.68557	0.683212	-0.0116965	0.963573	-0.503566	0.00685411	-0.193678	0	0.088301	0	0	-0.339119	-0.00505885	-0.356032	0.0985005	0.0457304	0	0	-0.539166	-0.0810373	0.0566361	0.178425	-0.790117	0.629291	1.50915	1.04915	0	0	0.180835	-0.712624	0.498713	1.6585	1.11699	0	0
3.89	-2.97224	1.2742	-1.68356	0.682957	-0.0126131	0.963704	-0.502212	0.00707877	-0.193103	0	0.0868615	0	0	-0.338399	-0.00505435	-0.355258	0.0968901	0.044613	0	0	-0.542784	-0.0801383	0.0535532	0.213044	-0.794387	0.651051	1.50151	1.03158	0	0	0.20816	-0.714773	0.511425	1.65246	1.10116	0	0
3.9	-2.9747	1.27508	-1.68185	0.682792	-0.0133995	0.96377	-0.500542	0.00718085	-0.19158	0	0.0852067	0	0	-0.337613	-0.00495203	-0.355448	0.0950076	0.044136	0	0	-0.545653	-0.0793993	0.0515115	0.247273	-0.797672	0.672211	1.49308	1.01318	0	0	0.235846	-0.71644	0.52517	1.64546	1.08262	0	0
3.91	-2.97747	1.27635	-1.67979	0.682619	-0.0141573	0.96378	-0.498442	0.00748552	-0.190844	0	0.0830589	0	0	-0.336142	-0.00518739	-0.355779	0.0937651	0.0434358	0	0	-0.548057	-0.0784661	0.0494706	0.282145	-0.799976	0.694047	1.48322	0.993197	0	0	0.263706	-0.717496	0.539203	1.63736	1.06193	0	0
3.92	-2.97976	1.27742	-1.6778	0.682399	-0.0149654	0.963815	-0.496569	0.0078516	-0.190451	0	0.0809391	0	0	-0.334289	-0.00555116	-0.356012	0.0934958	0.0430109	0	0	-0.550953	-0.0774228	0.0471988	0.316363	-0.801311	0.714134	1.47268	0.979289	0	0	0.292213	-0.717964	0.5531	1.62801	1.04873	0	0
3.93	-2.98003	1.27777	-1.6771	0.682047	-0.0158947	0.963955	-0.495412	0.00773753	-0.191043	0	0.0790424	0	0	-0.332647	-0.00537751	-0.355504	0.0936948	0.0425926	0	0	-0.555029	-0.0764761	0.0440286	0.351316	-0.802074	0.734377	1.46145	0.965965	0	0	0.321303	-0.717976	0.566442	1.61783	1.03741	0	0
3.94	-2.98116	1.27817	-1.67585	0.681732	-0.0168036	0.964094	-0.49414	0.0077837	-0.191445	0	0.0770609	0	0	-0.331091	-0.00533158	-0.355142	0.0936928	0.0420102	0	0	-0.559114	-0.0753655	0.0412727	0.386629	-0.80248	0.755203	1.4497	0.953385	0	0	0.350636	-0.717504	0.579113	1.60694	1.02681	0	0
3.95	-2.98402	1.27919	-1.67409	0.68156	-0.0174953	0.964171	-0.492319	0.00790141	-0.190975	0	0.0751204	0	0	-0.329945	-0.00543658	-0.355533	0.0925706	0.0409576	0	0	-0.562121	-0.0743272	0.0398862	0.421733	-0.802248	0.776375	1.43724	0.940648	0	0	0.379543	-0.716467	0.591168	1.59555	1.01675	0	0
3.96	-2.98697	1.28015	-1.67178	0.681343	-0.0182076	0.964247	-0.490617	0.0083153	-0.190294	0	0.0729418	0	0	-0.328218	-0.00591959	-0.355684	0.0925222	0.0402146	0	0	-0.565319	-0.0729947	0.0382394	0.457681	-0.80146	0.798381	1.42423	0.926828	0	0	0.408889	-0.715082	0.603348	1.58365	1.00625	0	0
3.97	-2.99015	1.28091	-1.66882	0.681056	-0.0189551	0.964363	-0.489087	0.00885797	-0.190175	0	0.0709019	0	0	-0.326165	-0.00668423	-0.355953	0.0932536	0.0393387	0	0	-0.568929	-0.0712471	0.0364311	0.494296	-0.80018	0.821383	1.41056	0.912335	0	0	0.438883	-0.713138	0.616724	1.57099	0.994429	0	0
3.98	-2.99355	1.2818	-1.66681	0.680875	-0.0195826	0.964471	-0.487384	0.00899091	-0.188901	0	0.0692984	0	0	-0.324273	-0.00716889	-0.358022	0.0939523	0.0380404	0	0	-0.572187	-0.0699789	0.0358321	0.53086	-0.798169	0.844914	1.39585	0.898038	0	0	0.469081	-0.710514	0.631369	1.55719	0.981138	0	0
3.99	-2.99679	1.28262	-1.66518	0.680681	-0.0202095	0.96456	-0.485741	0.00883535	-0.187056	0	0.0679682	0	0	-0.322124	-0.00761493	-0.360202	0.0955917	0.0367342	0	0	-0.575595	-0.0688141	0.0355101	0.567786	-0.795743	0.869186	1.3806	0.884019	0	0	0.499552	-0.707285	0.646972	1.54221	0.96746	0	0
4	-3.00097	1.28346	-1.66247	0.680459	-0.020865	0.964609	-0.484023	0.00896367	-0.185387	0	0.0664488	0	0	-0.319682	-0.00856543	-0.362372	0.097643	0.0367094	0	0	-0.579183	-0.0673007	0.0352701	0.604905	-0.792739	0.893871	1.36474	0.870517	0	0	0.53025	-0.70354	0.663205	1.52634	0.95479	0	0
4.01	-3.00525	1.28437	-1.65964	0.680238	-0.0214854	0.964656	-0.482245	0.00918161	-0.183847	0	0.0649818	0	0	-0.317015	-0.00964217	-0.365308	0.100092	0.0371787	0	0	-0.58274	-0.0657609	0.0351161	0.641688	-0.788832	0.918961	1.34763	0.858091	0	0	0.560931	-0.699367	0.679607	1.50965	0.944075	0	0
